<?xml version="1.0" encoding="utf-8"?>
<!-- Generator: Adobe Illustrator 21.0.1, SVG Export Plug-In . SVG Version: 6.00 Build 0)  -->
<svg version="1.1" id="Layer_1" xmlns="http://www.w3.org/2000/svg" xmlns:xlink="http://www.w3.org/1999/xlink" x="0px" y="0px"
	 viewBox="0 0 16 16" style="enable-background:new 0 0 16 16;" xml:space="preserve">
<style type="text/css">
	.st0{fill:#A3A3A3;}
</style>
<path class="st0" d="M13.8,12.7l-2.2-2.2c0.6-0.8,1-1.8,1-3c0-2.8-2.2-5-5-5s-5,2.2-5,5s2.2,5,5,5c1.1,0,2.2-0.4,3-1l2.2,2.2
	c0.1,0.1,0.3,0.2,0.5,0.2c0.4,0,0.7-0.3,0.7-0.7C14,13.1,14,12.9,13.8,12.7z M4,7.6C4,5.6,5.6,4,7.6,4s3.6,1.6,3.6,3.5
	s-1.6,3.5-3.6,3.5S4,9.6,4,7.6z"/>
</svg>
